HIERARCHY
ROOT hip
{
	OFFSET 0.000000 0.000000 0.000000 
	CHANNELS 6 Xposition Yposition Zposition Xrotation Zrotation Yrotation
	JOINT abdomen
	{
		OFFSET 0.000000 3.402643 0.000000 
		CHANNELS 3 Xrotation Zrotation Yrotation
		JOINT chest
		{
			OFFSET 0.000000 8.438565 -0.680529 
			CHANNELS 3 Xrotation Zrotation Yrotation
			JOINT neck
			{
				OFFSET 0.000000 10.207942 -0.272212 
				CHANNELS 3 Xrotation Zrotation Yrotation
				JOINT head
				{
					OFFSET 0.000000 3.130431 0.000000 
					CHANNELS 3 Xrotation Zrotation Yrotation
					End Site
					{
						OFFSET 0.000000 3.130435 0.000000 
					}
				}
			}
			JOINT lCollar
			{
				OFFSET 3.470700 6.669187 -0.816635 
				CHANNELS 3 Yrotation Zrotation Xrotation
				JOINT lShldr
				{
					OFFSET 3.198488 0.000000 0.000000 
					CHANNELS 3 Zrotation Yrotation Xrotation
					JOINT lForeArm
					{
						OFFSET 10.139888 0.000000 0.000000 
						CHANNELS 3 Yrotation Zrotation Xrotation
						JOINT lHand
						{
							OFFSET 8.370511 0.000000 0.000000 
							CHANNELS 3 Zrotation Yrotation Xrotation
							End Site
							{
								OFFSET 4.083176 0.000000 0.000000 
							}
						}
					}
				}
			}
			JOINT rCollar
			{
				OFFSET -3.470700 6.669187 -0.816635 
				CHANNELS 3 Yrotation Zrotation Xrotation
				JOINT rShldr
				{
					OFFSET -3.198488 0.000000 0.000000 
					CHANNELS 3 Zrotation Yrotation Xrotation
					JOINT rForeArm
					{
						OFFSET -10.139888 0.000000 0.000000 
						CHANNELS 3 Yrotation Zrotation Xrotation
						JOINT rHand
						{
							OFFSET -8.370511 0.000000 0.000000 
							CHANNELS 3 Zrotation Yrotation Xrotation
							End Site
							{
								OFFSET -4.083176 0.000000 0.000000 
							}
						}
					}
				}
			}
		}
	}
	JOINT lThigh
	{
		OFFSET 5.308129 -1.633274 1.361059 
		CHANNELS 3 Xrotation Zrotation Yrotation
		JOINT lShin
		{
			OFFSET -2.041588 -20.007561 0.000000 
			CHANNELS 3 Xrotation Zrotation Yrotation
			JOINT lFoot
			{
				OFFSET 0.000000 -19.190928 -1.224953 
				CHANNELS 3 Xrotation Yrotation Zrotation
				End Site
				{
					OFFSET 0.000000 -2.449906 4.627600 
				}
			}
		}
	}
	JOINT rThigh
	{
		OFFSET -5.308129 -1.633274 1.361059 
		CHANNELS 3 Xrotation Zrotation Yrotation
		JOINT rShin
		{
			OFFSET 2.041588 -20.007561 0.000000 
			CHANNELS 3 Xrotation Zrotation Yrotation
			JOINT rFoot
			{
				OFFSET 0.000000 -19.190928 -1.224953 
				CHANNELS 3 Xrotation Yrotation Zrotation
				End Site
				{
					OFFSET 0.000000 -2.449906 4.627600 
				}
			}
		}
	}
}
MOTION
Frames: 8
Frame Time: 0.016667
7.070646 50.391785 -1.130320 -0.360317 12.656009 -103.797729 -2.362977 2.601114 2.472902 -0.162679 3.044979 0.997348 -4.404764 1.535131 13.062955 17.459957 5.934766 6.997325 -0.966184 -2.090659 -0.113862 -97.575478 -23.003101 47.652195 -51.096516 -0.606741 24.717487 1.532180 -3.341803 -13.079002 0.956406 2.080914 -0.113715 86.905479 9.636832 17.957777 74.401917 0.939308 -0.463596 -1.449598 3.210997 -40.456867 -25.351271 10.693417 4.517026 31.839811 6.165739 3.610126 -9.175681 8.183679 1.751237 -30.696970 2.518180 8.569565 38.521648 -4.851925 -4.492948 -17.704071 -2.681475 3.160347 
7.083363 50.384010 -0.961635 -0.589478 12.196639 -103.678482 -2.202967 2.496494 2.207451 -0.244287 2.811122 0.868093 -4.566610 1.307511 13.190051 17.429268 5.858038 7.031198 -0.966184 -2.090659 -0.113862 -97.446449 -24.035563 48.354736 -51.640404 -0.617694 24.710575 1.545062 -3.351113 -11.752026 0.956406 2.080914 -0.113715 85.769394 10.237051 18.506990 76.540092 0.941958 -0.441749 -1.466894 3.214634 -35.594688 -25.033886 10.153757 4.521214 31.881468 6.164647 3.649284 -9.153913 8.203704 1.727033 -30.445520 1.972234 8.518238 38.818241 -4.851771 -4.522840 -17.918428 -2.533286 3.164113 
7.096021 50.377419 -0.791905 -0.807938 11.746912 -103.541946 -2.053266 2.408645 1.949169 -0.344785 2.605539 0.737212 -4.668947 1.123121 13.343157 17.408571 5.790793 7.077384 -0.966184 -2.090659 -0.113862 -97.420128 -25.049128 49.063900 -52.269436 -0.620255 24.700010 1.545887 -3.350951 -10.521557 0.956406 2.080914 -0.113715 84.667442 10.829289 18.633499 78.717316 0.935325 -0.422238 -1.477650 3.224365 -32.362801 -24.663502 9.607162 4.505759 31.834963 6.140923 3.622454 -9.132324 8.285913 1.710844 -30.181988 1.434933 8.424660 38.973305 -4.871386 -4.520391 -18.033611 -2.387793 3.179113 
7.109998 50.367523 -0.618603 -0.976109 11.346051 -103.412872 -1.923782 2.341960 1.716658 -0.454600 2.418683 0.611830 -4.760826 0.941608 13.516319 17.388039 5.733191 7.134865 -0.966184 -2.090659 -0.113862 -97.546890 -26.048450 49.871292 -52.998093 -0.629718 24.693216 1.546629 -3.350821 -9.418042 0.956406 2.080914 -0.113715 83.689865 11.397767 18.321644 80.914108 0.938628 -0.401132 -1.481365 3.222071 -31.083511 -24.358818 9.157307 4.461093 31.880369 6.115652 3.645946 -9.122159 8.324638 1.685445 -29.918093 0.946604 8.327900 39.099476 -4.881067 -4.504772 -18.129166 -2.216706 3.209287 
7.122892 50.354813 -0.443282 -1.064075 10.886839 -103.226563 -1.804218 2.322323 1.453273 -0.632318 2.260608 0.482451 -4.833482 0.739220 13.681669 17.367371 5.665932 7.181137 -0.966184 -2.090659 -0.113862 -97.859848 -27.034809 50.781406 -53.727386 -0.639092 24.690195 1.548689 -3.360382 -8.509839 0.956406 2.080914 -0.113715 82.790703 11.906247 17.805628 83.140221 0.942251 -0.380602 -1.482023 3.221678 -30.858904 -23.989445 8.757584 4.427078 31.863659 6.101785 3.661214 -9.140862 8.287630 1.680224 -29.584171 0.497300 8.187799 39.264748 -4.900959 -4.512556 -18.280907 -2.082603 3.207316 
7.135104 50.338554 -0.284934 -1.142088 10.476480 -103.145462 -1.695256 2.332687 1.253320 -0.809018 2.187082 0.376992 -4.866747 0.538199 13.856085 17.356386 5.588865 7.246458 -0.966184 -2.090659 -0.113862 -98.341331 -28.077679 51.789600 -54.430855 -0.647619 24.674322 1.549001 -3.360337 -7.894605 0.956406 2.080914 -0.113715 81.950790 12.386060 17.256721 85.327293 0.946647 -0.361498 -1.483947 3.220544 -30.204613 -23.742250 8.443846 4.512690 32.064064 6.091442 3.652256 -9.265565 8.224184 1.658961 -29.291052 0.135948 8.149763 39.394962 -4.891068 -4.539361 -18.371956 -1.981284 3.231379 
7.150553 50.316772 -0.156459 -1.270125 10.212388 -103.301292 -1.606748 2.327664 1.173795 -0.906643 2.197519 0.317205 -4.870738 0.356571 14.028317 17.375139 5.530663 7.298052 -0.966184 -2.090659 -0.113862 -98.996574 -29.158518 52.903980 -55.053246 -0.651309 24.667988 1.549189 -3.360312 -7.523511 0.956406 2.080914 -0.113715 81.163895 12.855647 16.667099 87.407333 0.953063 -0.364158 -1.489113 3.234576 -28.300844 -23.547054 8.268275 4.839983 32.178986 6.066298 3.676674 -9.405409 8.052827 1.643037 -29.158155 -0.087701 8.321700 39.539806 -4.918247 -4.548789 -18.442825 -1.879208 3.267538 
7.171972 50.287811 -0.046640 -1.418318 10.065337 -103.567841 -1.538300 2.349959 1.167085 -0.925499 2.263743 0.314638 -4.845812 0.222082 14.185760 17.393896 5.472467 7.369139 -0.966184 -2.090659 -0.113862 -99.895058 -30.259571 54.057407 -55.542992 -0.656165 24.663614 1.549363 -3.360290 -7.181715 0.956406 2.080914 -0.113715 80.464737 13.289844 15.899501 89.340637 0.959176 -0.350019 -1.496197 3.230971 -25.713520 -23.489063 8.170761 5.408012 32.359177 6.066824 3.708470 -9.598746 7.777011 1.643335 -29.210154 -0.236253 8.608585 39.669209 -4.904429 -4.545110 -18.483477 -1.800811 3.290366 
